<?xml version="1.0" encoding="UTF-8" standalone="no"?> <svg xmlns:dc="http://purl.org/dc/elements/1.1/" xmlns:cc="http://creativecommons.org/ns#" xmlns:rdf="http://www.w3.org/1999/02/22-rdf-syntax-ns#" xmlns:svg="http://www.w3.org/2000/svg" xmlns="http://www.w3.org/2000/svg" xmlns:xlink="http://www.w3.org/1999/xlink" id="svg8" viewBox="0 0 48.563889 24.519054" height="24.519054mm" width="48.563889mm"> <defs id="defs2"> <linearGradient id="linearGradient1139"> <stop id="stop1135" offset="0" style="stop-color:#1073ad;stop-opacity:1"></stop> <stop style="stop-color:#149acd;stop-opacity:1;" offset="0.48962516" id="stop1157"></stop> <stop style="stop-color:#159ed0;stop-opacity:1" offset="0.57940215" id="stop1141"></stop> <stop id="stop1159" offset="0.66567326" style="stop-color:#1199d4;stop-opacity:1"></stop> <stop id="stop1137" offset="1" style="stop-color:#1874a6;stop-opacity:1"></stop> </linearGradient> <linearGradient id="linearGradient1123"> <stop style="stop-color:#1073ad;stop-opacity:1" offset="0" id="stop1119"></stop> <stop style="stop-color:#1874a6;stop-opacity:1" offset="1" id="stop1121"></stop> </linearGradient> <linearGradient id="linearGradient1111"> <stop style="stop-color:#1073ad;stop-opacity:1" offset="0" id="stop1107"></stop> <stop style="stop-color:#1874a6;stop-opacity:1" offset="1" id="stop1109"></stop> </linearGradient> <linearGradient id="linearGradient1105"> <stop style="stop-color:#1073ad;stop-opacity:1" offset="0" id="stop1101"></stop> <stop style="stop-color:#1874a6;stop-opacity:1" offset="1" id="stop1103"></stop> </linearGradient> <linearGradient id="linearGradient934"> <stop id="stop930" offset="0" style="stop-color:#028cca;stop-opacity:1;"></stop> <stop style="stop-color:#0283cb;stop-opacity:1" offset="0.07309543" id="stop940"></stop> <stop style="stop-color:#ffffff;stop-opacity:1" offset="0.48321241" id="stop938"></stop> <stop id="stop942" offset="0.8617661" style="stop-color:#a8caea;stop-opacity:1"></stop> <stop id="stop932" offset="1" style="stop-color:#1188c9;stop-opacity:1"></stop> </linearGradient> <linearGradient id="linearGradient916"> <stop id="stop912" offset="0" style="stop-color:#028cca;stop-opacity:1"></stop> <stop style="stop-color:#0385cb;stop-opacity:1" offset="0.25609797" id="stop920"></stop> <stop id="stop982" offset="0.89756453" style="stop-color:#e8f4fa;stop-opacity:1;"></stop> <stop id="stop914" offset="1" style="stop-color:#83c3e5;stop-opacity:1"></stop> </linearGradient> <linearGradient id="linearGradient856"> <stop style="stop-color:#0386cc;stop-opacity:1" offset="0" id="stop850"></stop> <stop id="stop864" offset="0.11984955" style="stop-color:#179eda;stop-opacity:1"></stop> <stop id="stop852" offset="0.47940925" style="stop-color:#ffffff;stop-opacity:1"></stop> <stop style="stop-color:#1796d7;stop-opacity:1" offset="0.9194414" id="stop862"></stop> <stop style="stop-color:#1785d0;stop-opacity:1" offset="1" id="stop854"></stop> </linearGradient> <linearGradient id="linearGradient838"> <stop id="stop834" offset="0" style="stop-color:#0386cc;stop-opacity:1"></stop> <stop style="stop-color:#159bdb;stop-opacity:1" offset="0.10109956" id="stop858"></stop> <stop style="stop-color:#ffffff;stop-opacity:1" offset="0.52013016" id="stop842"></stop> <stop id="stop860" offset="0.86306316" style="stop-color:#29a3de;stop-opacity:1"></stop> <stop id="stop836" offset="1" style="stop-color:#1785d0;stop-opacity:1"></stop> </linearGradient> <linearGradient gradientTransform="translate(0.33408691,-13.196433)" gradientUnits="userSpaceOnUse" y2="269.96735" x2="188.39568" y1="263.05368" x1="188.39398" id="linearGradient840" xlink:href="#linearGradient838"></linearGradient> <linearGradient y2="270.36896" x2="188.34842" y1="262.74658" x1="188.39398" gradientTransform="matrix(1,0,0,-1,0.43431298,519.69695)" gradientUnits="userSpaceOnUse" id="linearGradient848" xlink:href="#linearGradient856"></linearGradient> <linearGradient gradientTransform="translate(0.03026028)" gradientUnits="userSpaceOnUse" y2="257.63382" x2="164.60294" y1="237.53253" x1="164.97212" id="linearGradient918" xlink:href="#linearGradient916"></linearGradient> <linearGradient gradientTransform="translate(0.03026028)" gradientUnits="userSpaceOnUse" y2="259.15512" x2="167.49071" y1="235.43713" x1="170.37277" id="linearGradient936" xlink:href="#linearGradient934"></linearGradient> <linearGradient gradientTransform="scale(3.7795276)" gradientUnits="userSpaceOnUse" y2="222.98305" x2="167.39424" y1="214.95645" x1="167.44148" id="linearGradient1069" xlink:href="#linearGradient1123"></linearGradient> <linearGradient gradientUnits="userSpaceOnUse" y2="222.98305" x2="167.39424" y1="214.95645" x1="167.44148" id="linearGradient1073" xlink:href="#linearGradient1111"></linearGradient> <linearGradient gradientUnits="userSpaceOnUse" y2="216.76216" x2="172.1983" y1="208.9595" x1="172.24692" id="linearGradient1075" xlink:href="#linearGradient1105"></linearGradient> <linearGradient y2="223.11746" x2="183.44713" y1="215.13287" x1="183.47934" gradientTransform="translate(0,26.269345)" gradientUnits="userSpaceOnUse" id="linearGradient1133" xlink:href="#linearGradient1139"></linearGradient> <linearGradient y2="216.76216" x2="172.1983" y1="208.9595" x1="172.24692" gradientUnits="userSpaceOnUse" id="linearGradient1182" xlink:href="#linearGradient1105"></linearGradient> <linearGradient y2="259.15512" x2="167.49071" y1="235.43713" x1="170.37277" gradientTransform="translate(0.03026028)" gradientUnits="userSpaceOnUse" id="linearGradient1184" xlink:href="#linearGradient934"></linearGradient> <linearGradient y2="270.36896" x2="188.34842" y1="262.74658" x1="188.39398" gradientTransform="matrix(1,0,0,-1,0.43431298,519.69695)" gradientUnits="userSpaceOnUse" id="linearGradient1186" xlink:href="#linearGradient856"></linearGradient> <linearGradient y2="269.96735" x2="188.39568" y1="263.05368" x1="188.39398" gradientTransform="translate(0.33408691,-13.196433)" gradientUnits="userSpaceOnUse" id="linearGradient1188" xlink:href="#linearGradient838"></linearGradient> <linearGradient y2="257.63382" x2="164.60294" y1="237.53253" x1="164.97212" gradientTransform="translate(0.03026028)" gradientUnits="userSpaceOnUse" id="linearGradient1190" xlink:href="#linearGradient916"></linearGradient> <linearGradient y2="223.11746" x2="183.44713" y1="215.13287" x1="183.47934" gradientTransform="translate(0,26.269345)" gradientUnits="userSpaceOnUse" id="linearGradient1192" xlink:href="#linearGradient1139"></linearGradient> </defs> <metadata id="metadata5"></metadata> <g transform="translate(-155.31474,-234.59176)" style="display:inline" id="layer1"> <g id="text1007" style="font-style:normal;font-variant:normal;font-weight:normal;font-stretch:normal;font-size:7.47392654px;line-height:1.25;font-family:Tahoma;-inkscape-font-specification:Tahoma;letter-spacing:0px;word-spacing:0px;fill:url(#linearGradient1182);fill-opacity:1;stroke:none;stroke-width:0.18684816" transform="scale(0.97210155,1.0286991)" aria-label="M"></g> <g id="g1180"> <path style="display:inline;fill:url(#linearGradient1184);fill-opacity:1;stroke:none;stroke-width:0.26458332px;stroke-linecap:butt;stroke-linejoin:miter;stroke-opacity:1" d="m 174.11743,241.68897 c 0.0613,-0.2034 0.1838,-0.60987 0.13091,-1.13016 -0.0529,-0.52029 -0.28135,-1.15555 -0.77121,-1.74004 -0.48985,-0.5845 -1.24172,-1.11916 -1.93213,-1.48387 -0.69042,-0.36472 -1.31957,-0.55959 -2.02119,-0.60138 -0.70162,-0.0418 -1.47538,0.0695 -2.24949,0.29507 -0.7741,0.22553 -1.54777,0.56505 -2.33027,1.02728 -0.78249,0.46223 -1.57284,1.04664 -2.24672,1.70378 -0.67388,0.65714 -1.23049,1.38629 -1.65655,2.09914 -0.42606,0.71285 -0.72105,1.40857 -0.93271,2.12704 -0.21166,0.71847 -0.33967,1.45868 -0.41765,2.12142 -0.078,0.66274 -0.10579,1.24716 -0.0222,1.8877 0.0835,0.64055 0.27833,1.33624 0.58462,2.16046 0.3063,0.82423 0.72381,1.77614 1.30853,2.64766 0.58473,0.87152 1.33632,1.66209 2.21336,2.29132 0.87705,0.62923 1.8793,1.09695 2.73121,1.42545 0.85192,0.3285 1.55358,0.51784 2.34976,0.56514 0.79619,0.0473 1.68731,-0.0474 2.51405,-0.3397 0.82675,-0.29233 1.58984,-0.78249 2.32746,-1.32528 0.73762,-0.5428 1.45063,-1.13883 1.84587,-1.54251 0.39523,-0.40369 0.47321,-0.61535 0.49282,-0.81388 0.0196,-0.19852 -0.0191,-0.38466 -0.23108,-0.6584 -0.212,-0.27373 -0.59827,-0.63635 -0.8994,-0.85485 -0.30114,-0.2185 -0.51767,-0.29331 -0.49004,-0.45094 0.0276,-0.15764 0.29939,-0.39788 0.6949,-0.42331 0.3955,-0.0254 0.91538,0.16362 1.35229,0.44308 0.4369,0.27946 0.79136,0.64967 1.02757,0.98033 0.23621,0.33067 0.35433,0.62202 0.3898,0.9567 0.0355,0.33467 -0.0118,0.71247 -0.15352,1.12604 -0.14177,0.41358 -0.37783,0.86208 -0.95292,1.42539 -0.5751,0.56332 -1.48789,1.24005 -2.48418,1.80713 -0.99629,0.56708 -2.07474,1.02365 -3.22462,1.31114 -1.14988,0.28749 -2.37007,0.40558 -3.55928,0.38196 -1.18922,-0.0236 -2.3465,-0.18893 -3.39858,-0.49063 -1.05209,-0.3017 -2.01121,-0.74559 -2.96806,-1.33624 -0.95685,-0.59064 -1.91742,-1.33075 -2.72461,-2.19702 -0.80719,-0.86626 -1.46075,-1.85841 -1.94502,-2.92936 -0.48428,-1.07096 -0.79928,-2.22071 -0.98037,-3.31916 -0.18109,-1.09845 -0.22834,-2.14592 -0.10627,-3.17738 0.12207,-1.03147 0.4135,-2.04753 0.79144,-3.00414 0.37794,-0.95661 0.84268,-1.85459 1.46861,-2.73242 0.62592,-0.87784 1.41365,-1.73646 2.27972,-2.46078 0.86607,-0.72432 1.81132,-1.3151 2.76398,-1.75597 0.95266,-0.44088 1.91366,-0.73233 2.85449,-0.90552 0.94084,-0.17319 1.86247,-0.22833 2.74819,-0.20076 0.88572,0.0276 1.73642,0.13784 2.5749,0.35829 0.83848,0.22045 1.66553,0.55127 2.37808,0.94889 0.71254,0.39761 1.3111,0.86229 1.88592,1.32293 0.57481,0.46064 1.12606,0.91739 1.49222,1.22055 0.36616,0.30316 0.54728,0.45279 0.64174,0.5511 0.0945,0.0983 0.10232,0.14553 -0.37612,0.65958 -0.47844,0.51405 -1.43477,1.48605 -1.96238,1.98225 -0.52761,0.49621 -0.62203,0.51193 -0.69314,0.49216 -0.0711,-0.0198 -0.11819,-0.0747 -0.14332,-0.12105 -0.0251,-0.0464 -0.0281,-0.0837 -0.0296,-0.10227 -0.001,-0.0186 -0.001,-0.0186 0.0603,-0.22196 z" id="path826"></path> <path id="path844" d="m 203.02135,255.41438 c -0.0865,-0.004 -0.25972,-0.0118 -0.57899,-0.18519 -0.31928,-0.1734 -0.78313,-0.51146 -1.27943,-1.02349 -0.4963,-0.51202 -1.02355,-1.19667 -1.45671,-1.72829 -0.43316,-0.53162 -0.77162,-0.90942 -1.2758,-1.23245 -0.50418,-0.32303 -1.17301,-0.59057 -1.73224,-0.7245 -0.55923,-0.13393 -1.00786,-0.13393 -1.42145,-0.0591 -0.41359,0.0748 -0.79122,0.2243 -1.11816,0.39367 -0.32693,0.16936 -0.6024,0.35825 -0.85051,0.55516 -0.24812,0.19691 -0.46856,0.40162 -0.59459,0.53159 -0.12602,0.12997 -0.15751,0.18509 -0.35016,0.4603 -0.19265,0.27521 -0.54755,0.77208 -0.96879,1.23662 -0.42124,0.46454 -0.90951,0.89768 -1.28351,1.18114 -0.374,0.28347 -0.63385,0.41733 -0.82282,0.50396 -0.18898,0.0866 -0.30706,0.12598 -0.44098,0.14176 -0.13392,0.0158 -0.28332,0.008 -0.47251,-0.0906 -0.1892,-0.0985 -0.41713,-0.28712 -0.72843,-0.56689 -0.31129,-0.27977 -0.70452,-0.64941 -1.09839,-1.03933 -0.39387,-0.38993 -0.78732,-0.79912 -1.21663,-1.21268 -0.42931,-0.41356 -0.89359,-0.83063 -1.39942,-1.15409 -0.50583,-0.32346 -1.05186,-0.55247 -1.69584,-0.66727 -0.64398,-0.11481 -1.38338,-0.11481 -2.15371,0.0471 -0.77033,0.16194 -1.56981,0.48563 -1.97766,0.65941 -0.40785,0.17379 -0.42356,0.19739 -0.49817,0.27201 -0.0746,0.0746 -0.20882,0.20094 -0.30727,0.30331 -0.0985,0.10237 -0.16142,0.18104 -0.22053,0.26377 -0.0591,0.0827 -0.1142,0.16932 -0.23782,0.34551 -0.12363,0.17619 -0.31524,0.44123 -0.32485,0.68836 -0.01,0.24714 0.16346,0.47424 0.28212,0.63066 0.11865,0.15641 0.18298,0.24226 0.28283,0.35858 0.0999,0.11631 0.23521,0.26306 0.37391,0.25694 0.1387,-0.006 0.28104,-0.16487 0.43472,-0.38971 0.15368,-0.22485 0.31912,-0.51634 0.45296,-0.74464 0.13383,-0.2283 0.23619,-0.39366 0.46064,-0.64175 0.22445,-0.24809 0.57087,-0.57876 0.83865,-0.81897 0.26778,-0.24022 0.45667,-0.38975 0.66543,-0.51973 0.20876,-0.12999 0.43671,-0.24003 0.61415,-0.30311 0.17745,-0.0631 0.30323,-0.0788 0.46086,-0.0472 0.15764,0.0316 0.34646,0.11025 0.61033,0.28357 0.26387,0.17333 0.60227,0.4409 0.97638,0.80717 0.37412,0.36627 0.7834,0.83065 1.28355,1.31896 0.50015,0.48831 1.09035,0.99982 1.6339,1.39762 0.54355,0.39779 1.03921,0.68102 1.46071,0.85432 0.42149,0.1733 0.76768,0.23625 1.09853,0.26774 0.33086,0.0315 0.64571,0.0315 1.03158,-0.0276 0.38588,-0.0591 0.84237,-0.17714 1.20075,-0.29135 0.35838,-0.11422 0.61823,-0.22446 0.96071,-0.49217 0.34247,-0.2677 0.76772,-0.69295 1.2441,-1.2402 0.47639,-0.54725 1.00399,-1.21659 1.44103,-1.72845 0.43704,-0.51185 0.78307,-0.86574 1.02355,-1.06286 0.24049,-0.19712 0.37413,-0.23642 0.52786,-0.24428 0.15373,-0.008 0.32685,0.0158 0.57491,0.2482 0.24807,0.23244 0.57082,0.67326 1.09454,1.31116 0.52372,0.6379 1.24759,1.47192 1.79519,2.02344 0.5476,0.55152 0.91749,0.8191 1.37432,1.01203 0.45683,0.19293 0.99979,0.31097 1.46456,0.37397 0.46476,0.063 0.85024,0.0709 1.08263,0.0512 0.23239,-0.0197 0.31142,-0.0671 0.30748,-0.11417 -0.004,-0.047 -0.0909,-0.0944 -0.1342,-0.11809 -0.0433,-0.0236 -0.32682,-0.30712 -0.32682,-0.30712 0,0 0,-4e-5 -0.0865,-0.004 z" style="display:inline;fill:url(#linearGradient1186);fill-opacity:1;stroke:none;stroke-width:0.26458332px;stroke-linecap:butt;stroke-linejoin:miter;stroke-opacity:1"></path> <path style="display:inline;fill:url(#linearGradient1188);fill-opacity:1;stroke:none;stroke-width:0.26458332px;stroke-linecap:butt;stroke-linejoin:miter;stroke-opacity:1" d="m 202.92112,251.08613 c -0.0865,0.004 -0.25972,0.0118 -0.57899,0.18519 -0.31928,0.1734 -0.78313,0.51146 -1.27943,1.02349 -0.4963,0.51202 -1.02355,1.19667 -1.45671,1.72829 -0.43316,0.53162 -0.77162,0.90942 -1.2758,1.23245 -0.50418,0.32303 -1.17301,0.59057 -1.73224,0.7245 -0.55923,0.13393 -1.00786,0.13393 -1.42145,0.0591 -0.41359,-0.0748 -0.79122,-0.2243 -1.11816,-0.39367 -0.32693,-0.16936 -0.6024,-0.35825 -0.85051,-0.55516 -0.24812,-0.19691 -0.46856,-0.40162 -0.59459,-0.53159 -0.12602,-0.12997 -0.15751,-0.18509 -0.35016,-0.4603 -0.19265,-0.27521 -0.54755,-0.77208 -0.96879,-1.23662 -0.42124,-0.46454 -0.90951,-0.89768 -1.28351,-1.18114 -0.374,-0.28347 -0.63385,-0.41733 -0.82282,-0.50396 -0.18898,-0.0866 -0.30706,-0.12598 -0.44098,-0.14176 -0.13392,-0.0158 -0.28332,-0.008 -0.47251,0.0906 -0.1892,0.0985 -0.41713,0.28712 -0.72843,0.56689 -0.31129,0.27977 -0.70452,0.64941 -1.09839,1.03933 -0.39387,0.38993 -0.78732,0.79912 -1.21663,1.21268 -0.42931,0.41356 -0.89359,0.83063 -1.39942,1.15409 -0.50583,0.32346 -1.05186,0.55247 -1.69584,0.66727 -0.64398,0.11481 -1.38338,0.11481 -2.15371,-0.0471 -0.77033,-0.16194 -1.56981,-0.48563 -1.97766,-0.65941 -0.40785,-0.17379 -0.42356,-0.19739 -0.49817,-0.27201 -0.0746,-0.0746 -0.20882,-0.20094 -0.30727,-0.30331 -0.0984,-0.10237 -0.16142,-0.18104 -0.22053,-0.26377 -0.0591,-0.0827 -0.1142,-0.16932 -0.25593,-0.36223 -0.14174,-0.19292 -0.37,-0.49202 -0.54331,-0.75985 -0.1733,-0.26783 -0.29142,-0.50407 -0.45675,-0.72844 -0.16534,-0.22437 -0.378,-0.43703 -0.66142,-0.64959 -0.28342,-0.21257 -0.63821,-0.42544 -0.91744,-0.53557 -0.27924,-0.11013 -0.48397,-0.11799 -1.28595,0.22139 -0.80198,0.33939 -2.20117,1.02614 -3.24924,1.5363 -1.04808,0.51016 -1.74571,0.84403 -2.09407,0.93645 -0.34835,0.0924 -0.34869,-0.0559 -0.1772,-0.3238 0.17149,-0.26787 0.51376,-0.65416 0.79661,-1.05081 0.28286,-0.39665 0.50574,-0.80273 1.1481,-1.16048 0.64235,-0.35776 1.69987,-0.66542 2.56068,-0.83089 0.86082,-0.16547 1.51953,-0.1877 2.14478,-0.15945 0.62524,0.0282 1.2156,0.10697 1.67633,0.21724 0.46072,0.11027 0.79148,0.25203 1.12212,0.53939 0.33063,0.28737 0.66146,0.72059 0.90945,1.08273 0.24798,0.36214 0.41342,0.65363 0.54726,0.88193 0.13383,0.2283 0.23619,0.39366 0.46064,0.64175 0.22445,0.24809 0.57087,0.57876 0.83865,0.81897 0.26778,0.24022 0.45667,0.38975 0.66543,0.51973 0.20876,0.12999 0.43671,0.24003 0.61415,0.30311 0.17745,0.0631 0.30323,0.0788 0.46086,0.0472 0.15764,-0.0316 0.34646,-0.11025 0.61033,-0.28357 0.26387,-0.17333 0.60227,-0.4409 0.97638,-0.80717 0.37412,-0.36627 0.7834,-0.83065 1.28355,-1.31896 0.50015,-0.48831 1.09035,-0.99982 1.6339,-1.39762 0.54355,-0.39779 1.03921,-0.68102 1.46071,-0.85432 0.42149,-0.1733 0.76768,-0.23625 1.09853,-0.26774 0.33086,-0.0315 0.64571,-0.0315 1.03158,0.0276 0.38588,0.0591 0.84237,0.17714 1.20075,0.29135 0.35838,0.11422 0.61823,0.22446 0.96071,0.49217 0.34247,0.2677 0.76772,0.69295 1.2441,1.2402 0.47639,0.54725 1.00399,1.21659 1.44103,1.72845 0.43704,0.51185 0.78307,0.86574 1.02355,1.06286 0.24049,0.19712 0.37413,0.23642 0.52786,0.24428 0.15373,0.008 0.32685,-0.0158 0.57491,-0.2482 0.24807,-0.23244 0.57082,-0.67326 1.09454,-1.31116 0.52372,-0.6379 1.24759,-1.47192 1.79519,-2.02344 0.5476,-0.55152 0.91749,-0.8191 1.37432,-1.01203 0.45683,-0.19293 0.99979,-0.31097 1.46456,-0.37397 0.46476,-0.063 0.85024,-0.0709 1.08263,-0.0512 0.23239,0.0197 0.31142,0.0671 0.30748,0.11417 -0.004,0.0471 -0.0909,0.0944 -0.1342,0.11809 -0.0433,0.0236 -0.32682,0.30712 -0.32682,0.30712 0,0 -1.5e-4,2e-5 -0.0866,0.004 z" id="path830"></path> <path style="display:inline;fill:url(#linearGradient1190);fill-opacity:1;stroke:none;stroke-width:0.26458332px;stroke-linecap:butt;stroke-linejoin:miter;stroke-opacity:1" d="m 166.5029,237.03717 c -0.20776,0.003 -0.45405,0.0127 -0.7214,0.0377 -0.53469,0.0501 -1.15222,0.16129 -1.70636,0.32556 -0.55413,0.16427 -1.04427,0.38147 -1.56786,0.68781 -0.52359,0.30634 -1.07963,0.70147 -1.65055,1.21388 -0.57091,0.51241 -1.15553,1.14091 -1.63452,1.82315 -0.47899,0.68223 -0.85203,1.41697 -1.09709,1.99057 -0.24506,0.5736 -0.36182,0.98581 -0.46767,1.50947 -0.10585,0.52366 -0.20055,1.15763 -0.22841,1.80092 -0.0279,0.6433 0.0111,1.29477 0.12247,1.97146 0.11138,0.67669 0.29507,1.37775 0.58188,2.12959 0.2868,0.75183 0.67657,1.55334 1.10536,2.23552 0.42879,0.68217 0.89648,1.2449 1.40043,1.75441 0.50395,0.50952 1.04386,0.96595 1.58956,1.33067 0.54571,0.36473 1.09719,0.63755 1.74305,0.87695 0.64586,0.2394 1.38634,0.44564 1.98489,0.56534 0.59856,0.1197 1.05541,0.15266 1.42007,0.14986 0.36466,-0.003 0.63783,-0.0414 0.81597,-0.0692 0.17815,-0.0278 0.26165,-0.0447 0.3173,-0.0558 0.0556,-0.0111 0.0836,-0.0169 0.37568,-0.15193 0.0408,-0.0189 0.0882,-0.0427 0.13901,-0.0729 -0.0585,-0.002 -0.11761,-0.003 -0.17518,-0.006 -0.79618,-0.0473 -1.49782,-0.23683 -2.34973,-0.56534 -0.85191,-0.32849 -1.85405,-0.79599 -2.7311,-1.42523 -0.87704,-0.62923 -1.62857,-1.41981 -2.2133,-2.29133 -0.58473,-0.87152 -1.00215,-1.82367 -1.30845,-2.6479 -0.30629,-0.82423 -0.50143,-1.51953 -0.58497,-2.16007 -0.0835,-0.64055 -0.0558,-1.22501 0.0222,-1.88775 0.078,-0.66273 0.20589,-1.40336 0.41755,-2.12183 0.21166,-0.71847 0.50669,-1.41416 0.93276,-2.127 0.42606,-0.71285 0.98286,-1.44196 1.65674,-2.0991 0.67389,-0.65713 1.4644,-1.24154 2.2469,-1.70377 0.76717,-0.45318 1.52567,-0.78685 2.28461,-1.01234 -0.0685,0.003 -0.12304,0.002 -0.22996,-0.001 -0.11269,-0.003 -0.28213,-0.007 -0.48989,-0.004 z" id="path826-1"></path> <path d="m 200.14548,244.08957 c -0.97657,0.2311 -1.28243,1.15195 -1.23713,1.98282 l -0.0149,2.57153 -0.41036,-6.3e-4 v 1.00304 h 5.39554 l -0.002,-0.99477 -0.59324,-0.008 0.0176,-3.80804 c -0.0623,-0.26411 -0.24254,-0.638 -0.54984,-0.7462 z m 1.20406,1.02177 c 0.24121,0.004 0.45424,0.0165 0.45424,0.0165 0.0807,0.034 0.16255,0.0786 0.25425,0.2222 v 3.28495 h -1.96267 c 0,0 -0.009,-2.09374 0.004,-2.49634 0.007,-0.21118 0.0335,-0.46318 0.16922,-0.6844 0.12303,-0.20052 0.35057,-0.27924 0.45762,-0.3104 0.11256,-0.0327 0.38201,-0.0368 0.62322,-0.0325 z m -31.19868,4.35647 h 3.97113 V 248.371 h -2.60096 v -0.98038 h 2.29302 v -1.18118 h -2.29302 v -0.89768 h 2.66002 v -1.16938 l -4.03077,-0.004 z m 23.43452,0 h 3.97113 V 248.371 h -2.60096 v -0.98038 h 2.29302 v -1.18118 h -2.29302 v -0.89768 h 2.66002 v -1.16938 l -4.03077,-0.004 z m -1.13787,0.16136 h -1.3197 v -3.3982 l -0.97738,3.2726 h -0.90463 l -0.94539,-3.2726 v 3.3982 h -1.24875 v -5.58987 h 1.80462 l 0.89508,3.47988 0.92494,-3.47153 1.77121,-0.008 z m -8.9992,-5.62849 c -1.45473,4e-5 -2.63399,1.26398 -2.63395,2.82309 -4e-5,1.5591 1.17922,2.82304 2.63395,2.82308 1.45473,-4e-5 2.63399,-1.26398 2.63395,-2.82308 4e-5,-1.55911 -1.17922,-2.82305 -2.63395,-2.82309 z m 0,1.20458 c 0.78294,-5e-5 1.41762,0.76166 1.41748,1.70119 -1e-4,0.93932 -0.63471,1.70072 -1.41748,1.70067 -0.78277,5e-5 -1.41738,-0.76135 -1.41748,-1.70067 -1.4e-4,-0.93953 0.63454,-1.70124 1.41748,-1.70119 z m -8.08371,-1.07468 v 5.33155 h 1.1526 l -0.006,-2.23129 h 2.05463 l 0.006,2.24801 h 1.08578 v -5.35889 h -1.14424 v 2.1433 h -1.97947 v -2.1433 l -1.1693,0.0106 z m -9.28762,5.38167 h 1.5535 v -6.5147 h 2.43884 v -1.53679 h -3.99234 z" style="display:inline;fill:#93c0d3;fill-opacity:1;stroke:none;stroke-width:0.204;stroke-miterlimit:4;stroke-dasharray:none;stroke-dashoffset:0;stroke-opacity:1" id="path1161"></path> <path id="rect1044" style="display:inline;fill:url(#linearGradient1192);fill-opacity:1;stroke:none;stroke-width:0.204;stroke-miterlimit:4;stroke-dasharray:none;stroke-dashoffset:0;stroke-opacity:1" d="m 199.90924,243.82971 c -0.97657,0.2311 -1.28243,1.15195 -1.23713,1.98282 l -0.0149,2.57153 -0.41036,-6.3e-4 v 1.00304 h 5.39554 l -0.002,-0.99477 -0.59324,-0.008 0.0176,-3.80804 c -0.0623,-0.26411 -0.24254,-0.638 -0.54984,-0.7462 z m 1.20406,1.02177 c 0.24121,0.004 0.45424,0.0165 0.45424,0.0165 0.0807,0.034 0.16255,0.0786 0.25425,0.2222 v 3.28495 h -1.96267 c 0,0 -0.009,-2.09374 0.004,-2.49634 0.007,-0.21118 0.0335,-0.46318 0.16922,-0.6844 0.12303,-0.20052 0.35057,-0.27924 0.45762,-0.3104 0.11256,-0.0327 0.38201,-0.0368 0.62322,-0.0325 z m -31.19868,4.35647 h 3.97113 v -1.09681 h -2.60096 v -0.98038 h 2.29302 v -1.18118 h -2.29302 v -0.89768 h 2.66002 v -1.16938 l -4.03077,-0.004 z m 23.43452,0 h 3.97113 v -1.09681 h -2.60096 v -0.98038 h 2.29302 v -1.18118 h -2.29302 v -0.89768 h 2.66002 v -1.16938 l -4.03077,-0.004 z m -1.13787,0.16136 h -1.3197 v -3.3982 l -0.97738,3.2726 h -0.90463 l -0.94539,-3.2726 v 3.3982 h -1.24875 v -5.58987 h 1.80462 l 0.89508,3.47988 0.92494,-3.47153 1.77121,-0.008 z m -8.9992,-5.62849 c -1.45473,4e-5 -2.63399,1.26398 -2.63395,2.82309 -4e-5,1.5591 1.17922,2.82304 2.63395,2.82308 1.45473,-4e-5 2.63399,-1.26398 2.63395,-2.82308 4e-5,-1.55911 -1.17922,-2.82305 -2.63395,-2.82309 z m 0,1.20458 c 0.78294,-5e-5 1.41762,0.76166 1.41748,1.70119 -1e-4,0.93932 -0.63471,1.70072 -1.41748,1.70067 -0.78277,5e-5 -1.41738,-0.76135 -1.41748,-1.70067 -1.4e-4,-0.93953 0.63454,-1.70124 1.41748,-1.70119 z m -8.08371,-1.07468 v 5.33155 h 1.1526 l -0.006,-2.23129 h 2.05463 l 0.006,2.24801 h 1.08578 v -5.35889 h -1.14424 v 2.1433 h -1.97947 v -2.1433 l -1.1693,0.0106 z m -9.28762,5.38167 h 1.5535 v -6.5147 h 2.43884 v -1.53679 h -3.99234 z"></path> </g> </g> </svg> 